<svg id="visual" viewBox="0 0 960 540" width="960" height="540" xmlns="http://www.w3.org/2000/svg" xmlns:xlink="http://www.w3.org/1999/xlink" version="1.1"><rect x="0" y="0" width="960" height="540" fill="#FFFFFF"></rect><defs><linearGradient id="grad1_0" x1="43.8%" y1="0%" x2="100%" y2="100%"><stop offset="14.444444444444446%" stop-color="#1f3a5a" stop-opacity="1"></stop><stop offset="85.55555555555554%" stop-color="#1f3a5a" stop-opacity="1"></stop></linearGradient></defs><defs><linearGradient id="grad1_1" x1="43.8%" y1="0%" x2="100%" y2="100%"><stop offset="14.444444444444446%" stop-color="#1f3a5a" stop-opacity="1"></stop><stop offset="85.55555555555554%" stop-color="#3f5370" stop-opacity="1"></stop></linearGradient></defs><defs><linearGradient id="grad1_2" x1="43.8%" y1="0%" x2="100%" y2="100%"><stop offset="14.444444444444446%" stop-color="#5e6d86" stop-opacity="1"></stop><stop offset="85.55555555555554%" stop-color="#3f5370" stop-opacity="1"></stop></linearGradient></defs><defs><linearGradient id="grad1_3" x1="43.8%" y1="0%" x2="100%" y2="100%"><stop offset="14.444444444444446%" stop-color="#5e6d86" stop-opacity="1"></stop><stop offset="85.55555555555554%" stop-color="#7d889d" stop-opacity="1"></stop></linearGradient></defs><defs><linearGradient id="grad1_4" x1="43.8%" y1="0%" x2="100%" y2="100%"><stop offset="14.444444444444446%" stop-color="#9ca4b5" stop-opacity="1"></stop><stop offset="85.55555555555554%" stop-color="#7d889d" stop-opacity="1"></stop></linearGradient></defs><defs><linearGradient id="grad1_5" x1="43.8%" y1="0%" x2="100%" y2="100%"><stop offset="14.444444444444446%" stop-color="#9ca4b5" stop-opacity="1"></stop><stop offset="85.55555555555554%" stop-color="#bcc2cd" stop-opacity="1"></stop></linearGradient></defs><defs><linearGradient id="grad1_6" x1="43.8%" y1="0%" x2="100%" y2="100%"><stop offset="14.444444444444446%" stop-color="#dde0e6" stop-opacity="1"></stop><stop offset="85.55555555555554%" stop-color="#bcc2cd" stop-opacity="1"></stop></linearGradient></defs><defs><linearGradient id="grad1_7" x1="43.8%" y1="0%" x2="100%" y2="100%"><stop offset="14.444444444444446%" stop-color="#dde0e6" stop-opacity="1"></stop><stop offset="85.55555555555554%" stop-color="#ffffff" stop-opacity="1"></stop></linearGradient></defs><defs><linearGradient id="grad2_0" x1="0%" y1="0%" x2="56.3%" y2="100%"><stop offset="14.444444444444446%" stop-color="#1f3a5a" stop-opacity="1"></stop><stop offset="85.55555555555554%" stop-color="#1f3a5a" stop-opacity="1"></stop></linearGradient></defs><defs><linearGradient id="grad2_1" x1="0%" y1="0%" x2="56.3%" y2="100%"><stop offset="14.444444444444446%" stop-color="#3f5370" stop-opacity="1"></stop><stop offset="85.55555555555554%" stop-color="#1f3a5a" stop-opacity="1"></stop></linearGradient></defs><defs><linearGradient id="grad2_2" x1="0%" y1="0%" x2="56.3%" y2="100%"><stop offset="14.444444444444446%" stop-color="#3f5370" stop-opacity="1"></stop><stop offset="85.55555555555554%" stop-color="#5e6d86" stop-opacity="1"></stop></linearGradient></defs><defs><linearGradient id="grad2_3" x1="0%" y1="0%" x2="56.3%" y2="100%"><stop offset="14.444444444444446%" stop-color="#7d889d" stop-opacity="1"></stop><stop offset="85.55555555555554%" stop-color="#5e6d86" stop-opacity="1"></stop></linearGradient></defs><defs><linearGradient id="grad2_4" x1="0%" y1="0%" x2="56.3%" y2="100%"><stop offset="14.444444444444446%" stop-color="#7d889d" stop-opacity="1"></stop><stop offset="85.55555555555554%" stop-color="#9ca4b5" stop-opacity="1"></stop></linearGradient></defs><defs><linearGradient id="grad2_5" x1="0%" y1="0%" x2="56.3%" y2="100%"><stop offset="14.444444444444446%" stop-color="#bcc2cd" stop-opacity="1"></stop><stop offset="85.55555555555554%" stop-color="#9ca4b5" stop-opacity="1"></stop></linearGradient></defs><defs><linearGradient id="grad2_6" x1="0%" y1="0%" x2="56.3%" y2="100%"><stop offset="14.444444444444446%" stop-color="#bcc2cd" stop-opacity="1"></stop><stop offset="85.55555555555554%" stop-color="#dde0e6" stop-opacity="1"></stop></linearGradient></defs><defs><linearGradient id="grad2_7" x1="0%" y1="0%" x2="56.3%" y2="100%"><stop offset="14.444444444444446%" stop-color="#ffffff" stop-opacity="1"></stop><stop offset="85.55555555555554%" stop-color="#dde0e6" stop-opacity="1"></stop></linearGradient></defs><g transform="translate(960, 0)"><path d="M0 216C-29.4 214 -58.8 212.1 -82.7 199.6C-106.5 187 -124.7 163.9 -142.8 142.8C-161 121.7 -179.1 102.7 -191.2 79.2C-203.4 55.7 -209.7 27.9 -216 0L0 0Z" fill="#eeeff2"></path><path d="M0 189C-25.7 187.3 -51.5 185.6 -72.3 174.6C-93.2 163.6 -109.1 143.4 -125 125C-140.9 106.5 -156.7 89.8 -167.3 69.3C-178 48.8 -183.5 24.4 -189 0L0 0Z" fill="#cdd1d9"></path><path d="M0 162C-22.1 160.5 -44.1 159.1 -62 149.7C-79.9 140.3 -93.5 122.9 -107.1 107.1C-120.7 91.3 -134.3 77 -143.4 59.4C-152.6 41.8 -157.3 20.9 -162 0L0 0Z" fill="#acb3c1"></path><path d="M0 135C-18.4 133.8 -36.8 132.6 -51.7 124.7C-66.5 116.9 -77.9 102.5 -89.3 89.3C-100.6 76.1 -111.9 64.2 -119.5 49.5C-127.1 34.8 -131.1 17.4 -135 0L0 0Z" fill="#8c96a9"></path><path d="M0 108C-14.7 107 -29.4 106 -41.3 99.8C-53.2 93.5 -62.3 82 -71.4 71.4C-80.5 60.9 -89.5 51.3 -95.6 39.6C-101.7 27.9 -104.9 13.9 -108 0L0 0Z" fill="#6d7a92"></path><path d="M0 81C-11 80.3 -22.1 79.5 -31 74.8C-39.9 70.1 -46.8 61.5 -53.6 53.6C-60.4 45.7 -67.1 38.5 -71.7 29.7C-76.3 20.9 -78.6 10.5 -81 0L0 0Z" fill="#4f607b"></path><path d="M0 54C-7.4 53.5 -14.7 53 -20.7 49.9C-26.6 46.8 -31.2 41 -35.7 35.7C-40.2 30.4 -44.8 25.7 -47.8 19.8C-50.9 13.9 -52.4 7 -54 0L0 0Z" fill="#304665"></path><path d="M0 27C-3.7 26.8 -7.4 26.5 -10.3 24.9C-13.3 23.4 -15.6 20.5 -17.9 17.9C-20.1 15.2 -22.4 12.8 -23.9 9.9C-25.4 7 -26.2 3.5 -27 0L0 0Z" fill="#1f3a5a"></path></g><g transform="translate(0, 540)"><path d="M0 -216C26.2 -208.2 52.5 -200.4 79.2 -191.2C106 -182.1 133.3 -171.6 152.7 -152.7C172.2 -133.9 183.9 -106.8 193.1 -80C202.3 -53.1 209.2 -26.6 216 0L0 0Z" fill="#eeeff2"></path><path d="M0 -189C22.9 -182.2 45.9 -175.4 69.3 -167.3C92.7 -159.3 116.6 -150.1 133.6 -133.6C150.7 -117.2 160.9 -93.5 169 -70C177 -46.5 183 -23.3 189 0L0 0Z" fill="#cdd1d9"></path><path d="M0 -162C19.7 -156.2 39.3 -150.3 59.4 -143.4C79.5 -136.6 99.9 -128.7 114.6 -114.6C129.2 -100.4 137.9 -80.1 144.8 -60C151.7 -39.9 156.9 -19.9 162 0L0 0Z" fill="#acb3c1"></path><path d="M0 -135C16.4 -130.1 32.8 -125.3 49.5 -119.5C66.2 -113.8 83.3 -107.2 95.5 -95.5C107.6 -83.7 114.9 -66.8 120.7 -50C126.5 -33.2 130.7 -16.6 135 0L0 0Z" fill="#8c96a9"></path><path d="M0 -108C13.1 -104.1 26.2 -100.2 39.6 -95.6C53 -91 66.6 -85.8 76.4 -76.4C86.1 -67 91.9 -53.4 96.5 -40C101.2 -26.6 104.6 -13.3 108 0L0 0Z" fill="#6d7a92"></path><path d="M0 -81C9.8 -78.1 19.7 -75.2 29.7 -71.7C39.7 -68.3 50 -64.3 57.3 -57.3C64.6 -50.2 68.9 -40.1 72.4 -30C75.9 -19.9 78.4 -10 81 0L0 0Z" fill="#4f607b"></path><path d="M0 -54C6.6 -52.1 13.1 -50.1 19.8 -47.8C26.5 -45.5 33.3 -42.9 38.2 -38.2C43.1 -33.5 46 -26.7 48.3 -20C50.6 -13.3 52.3 -6.6 54 0L0 0Z" fill="#304665"></path><path d="M0 -27C3.3 -26 6.6 -25.1 9.9 -23.9C13.2 -22.8 16.7 -21.4 19.1 -19.1C21.5 -16.7 23 -13.4 24.1 -10C25.3 -6.6 26.1 -3.3 27 0L0 0Z" fill="#1f3a5a"></path></g></svg>